# xmcd CD database file
#
# Track frame offsets:
#	150
#	15284
#	39886
#	55486
#	69735
#	84851
#	115400
#	134273
#	152195
#	165683
#	179465
#	194880
#	209563
#	234311
#	253764
#
# Disc length: 3695 seconds
#
# Revision: 0
# Processed by: cddbd v1.5.1PL0 Copyright (c) Steve Scherf et al.
# Submitted via: CDex 1.51
#
DISCID=d20e6d0f
DTITLE=ZIZZ STUDIO - CHAOS GATE  Disc02
DYEAR=2005
DGENRE=Game
TTITLE0=異形繚乱
TTITLE1=深淵潜行
TTITLE2=弧獣慟哭
TTITLE3=聖母伽藍
TTITLE4=虚空哀唱
TTITLE5=屍衣麗人
TTITLE6=聲無キ涙
TTITLE7=strange gimmick
TTITLE8=天魔降臨
TTITLE9=臨界点
TTITLE10=驍勇再起
TTITLE11=涼風
TTITLE12=サイン（Game Arrange Version）
TTITLE13=残光
TTITLE14=陽炎（Album Arrange Version）
EXTD=YEAR: 2005
EXTT0=
EXTT1=
EXTT2=
EXTT3=
EXTT4=
EXTT5=
EXTT6=
EXTT7=
EXTT8=
EXTT9=
EXTT10=
EXTT11=
EXTT12=
EXTT13=
EXTT14=
PLAYORDER=
